<svg width="1397" height="839" viewBox="0 0 1397 839" fill="none" xmlns="http://www.w3.org/2000/svg">
<mask id="path-1-outside-1_54_40" maskUnits="userSpaceOnUse" x="-0.0670776" y="-0.221724" width="1397" height="839" fill="black">
<rect fill="white" x="-0.0670776" y="-0.221724" width="1397" height="839"/>
<path d="M57.9329 58.7783H1337.93V778.778H57.9329V58.7783Z"/>
</mask>
<path d="M57.9329 58.7783H1337.93V778.778H57.9329V58.7783Z" fill="#FDFFFE"/>
<path d="M120.433 54.4425L119.756 4.44713L120.433 54.4425ZM245.433 56.3562L242.264 6.45671L245.433 56.3562ZM370.433 54.4831L361.376 103.656L370.433 54.4831ZM420.433 62.6674L415.351 112.408L420.433 62.6674ZM470.433 65.2198L465.345 15.4794L470.433 65.2198ZM482.933 63.9412L477.845 14.2007L482.933 63.9412ZM520.433 59.0126L511.114 9.88869L520.433 59.0126ZM570.433 51.3545L568.257 1.40184L570.433 51.3545ZM645.433 51.4374L643.147 101.385L645.433 51.4374ZM670.433 56.0825L685.923 8.54254L670.433 56.0825ZM695.433 64.2285L679.943 111.768L695.433 64.2285ZM720.433 65.9631L729.627 115.111L720.433 65.9631ZM745.433 61.2863L736.239 12.1389L745.433 61.2863ZM795.433 60.604L793.227 110.555L795.433 60.604ZM895.433 57.5365L890.767 7.75473L895.433 57.5365ZM920.433 58.5604L929.083 9.31438L920.433 58.5604ZM945.433 62.9517L936.783 112.198L945.433 62.9517ZM995.433 62.5562L991.986 12.6751L995.433 62.5562ZM1020.43 59.0382L1030.82 107.948V107.948L1020.43 59.0382ZM1032.93 56.384L1022.55 7.47443V7.47443L1032.93 56.384ZM1045.43 53.7298L1035.05 4.82023V4.82023L1045.43 53.7298ZM1095.43 55.1925L1100.89 5.49117L1095.43 55.1925ZM1120.43 55.902L1117.79 5.97212L1120.43 55.902ZM1220.43 57.4031L1208.45 105.947L1220.43 57.4031ZM1245.43 63.5732L1257.41 15.0297L1245.43 63.5732ZM1270.43 65.3643L1265.28 15.63L1270.43 65.3643ZM1295.43 62.7766L1300.58 112.511L1295.43 62.7766ZM1315.81 65.8066L1339.87 21.9776L1315.81 65.8066ZM1323.68 70.1305L1347.75 26.3015L1323.68 70.1305ZM1331.56 74.4544L1307.5 118.283L1331.56 74.4544ZM1337.95 91.2783L1288.3 85.3883L1337.95 91.2783ZM1334.99 116.278L1285.34 110.388L1334.99 116.278ZM1333.53 141.278L1283.53 141.36L1333.53 141.278ZM1333.57 166.278L1383.57 166.197L1333.57 166.278ZM1335.73 191.278L1385.01 182.831V182.831L1335.73 191.278ZM1340.01 216.278L1290.73 224.726V224.726L1340.01 216.278ZM1339.69 241.278L1290.64 231.581L1339.69 241.278ZM1334.74 266.278L1383.79 275.976L1334.74 266.278ZM1336.02 291.278L1383.91 276.911L1336.02 291.278ZM1339.77 303.778L1291.88 318.146L1339.77 303.778ZM1343.52 316.278L1295.63 330.646L1343.52 316.278ZM1345.54 341.278L1296.01 334.409L1345.54 341.278ZM1342.07 366.278L1391.6 373.148L1342.07 366.278ZM1341.65 391.278L1391.38 386.059V386.059L1341.65 391.278ZM1344.27 416.278L1294.55 421.498V421.498L1344.27 416.278ZM1345.51 441.278L1295.51 440.977L1345.51 441.278ZM1345.36 466.278L1395.36 466.579L1345.36 466.278ZM1344.54 491.278L1394.46 494.233L1344.54 491.278ZM1343.06 516.278L1293.15 513.323L1343.06 516.278ZM1343.4 541.278L1293.59 545.571L1343.4 541.278ZM1345.55 566.278L1395.37 561.985L1345.55 566.278ZM1345.58 591.278L1295.75 587.072L1345.58 591.278ZM1343.47 616.278L1393.29 620.485L1343.47 616.278ZM1344.23 666.278L1394.17 663.852L1344.23 666.278ZM1343.78 691.278L1293.96 687.061L1343.78 691.278ZM1341.67 716.278L1391.49 720.495L1341.67 716.278ZM1339.82 741.278L1289.92 738.113L1339.82 741.278ZM1338.23 766.278L1388.13 769.444L1338.23 766.278ZM1325.06 779.968L1320.28 730.197L1325.06 779.968ZM1312.68 781.157L1317.47 830.928L1312.68 781.157ZM1300.31 782.347L1305.09 832.118L1300.31 782.347ZM1275.43 780.561L1263.85 829.201L1275.43 780.561ZM1262.93 777.585L1274.51 728.944L1262.93 777.585ZM1250.43 774.609L1238.85 823.25L1250.43 774.609ZM1225.43 772.706L1229.71 822.523L1225.43 772.706ZM1212.93 773.78L1208.66 723.963L1212.93 773.78ZM1200.43 774.853L1204.71 824.67L1200.43 774.853ZM1175.43 778.746L1186.44 827.52L1175.43 778.746ZM1150.43 784.387L1161.44 833.161L1150.43 784.387ZM1125.43 785.619L1131.74 736.017L1125.43 785.619ZM1100.43 782.442L1094.13 832.043L1100.43 782.442ZM1075.43 779.599L1080.43 729.849L1075.43 779.599ZM1025.43 775.357L1023.52 825.32L1025.43 775.357ZM975.433 774.261L976.785 824.243L975.433 774.261ZM962.933 774.599L961.581 724.617L962.933 774.599ZM950.433 774.937L951.785 824.919L950.433 774.937ZM925.433 777.189L932.998 826.613L925.433 777.189ZM900.433 781.015L892.868 731.591L900.433 781.015ZM875.433 783.693L878.485 833.6L875.433 783.693ZM825.433 786.044L825.665 836.044L825.433 786.044ZM812.933 786.102L812.701 736.103L812.933 786.102ZM800.433 786.161L800.665 836.16L800.433 786.161ZM775.433 781.891L759.075 829.139L775.433 781.891ZM762.933 777.563L779.291 730.315L762.933 777.563ZM750.433 773.235L766.791 725.987L750.433 773.235ZM725.433 771.642L714.748 722.797L725.433 771.642ZM700.433 777.111L711.118 825.956L700.433 777.111ZM675.433 779.162L672.703 829.087L675.433 779.162ZM650.433 777.795L647.703 827.72L650.433 777.795ZM625.433 777.065L625.247 827.064L625.433 777.065ZM600.433 776.972L600.247 826.971L600.433 776.972ZM575.433 778.519L581.759 828.118L575.433 778.519ZM562.933 780.114L569.259 829.712L562.933 780.114ZM550.433 781.708L544.107 732.11L550.433 781.708ZM525.433 784.09L522.286 734.189L525.433 784.09ZM500.433 785.667L497.286 735.766L500.433 785.667ZM475.433 786.984L473.318 737.029L475.433 786.984ZM450.433 788.042L452.547 837.998L450.433 788.042ZM400.433 780.65L390.1 829.571L400.433 780.65ZM350.433 779.661L348.234 729.709L350.433 779.661ZM312.933 776.428L320.414 726.99L312.933 776.428ZM300.433 774.536L292.952 823.973L300.433 774.536ZM275.433 774.4L282.387 823.914L275.433 774.4ZM262.933 776.156L255.979 726.641L262.933 776.156ZM250.433 777.911L257.387 827.425L250.433 777.911ZM225.433 777.143L215.538 826.154L225.433 777.143ZM175.433 772.476L164.12 723.773L175.433 772.476ZM150.433 778.283L161.746 826.987L150.433 778.283ZM100.433 777.788L95.9197 827.584L100.433 777.788ZM79.0069 772.186L101.392 727.477L79.0069 772.186ZM70.0809 767.717L47.6954 812.426L70.0809 767.717ZM61.155 763.247L83.5405 718.539L61.155 763.247ZM51.3857 396.278L2.63547 385.169L51.3857 396.278ZM82.9329 56.6951L87.085 106.522L99.585 105.481L95.4329 55.6534L91.2809 5.82614L78.7809 6.86775L82.9329 56.6951ZM95.4329 55.6534L99.585 105.481C106.766 104.882 113.941 104.535 121.11 104.438L120.433 54.4425L119.756 4.44713C110.259 4.57575 100.766 5.03573 91.2809 5.82614L95.4329 55.6534ZM120.433 54.4425L121.11 104.438L133.61 104.269L132.933 54.2733L132.256 4.27784L119.756 4.44713L120.433 54.4425ZM132.933 54.2733L133.61 104.269L146.11 104.099L145.433 54.104L144.756 4.10855L132.256 4.27784L132.933 54.2733ZM145.433 54.104L146.11 104.099C152.613 104.011 159.124 104.279 165.652 104.906L170.433 55.1354L175.214 5.36452C165.075 4.39057 154.919 3.97091 144.756 4.10855L145.433 54.104ZM170.433 55.1354L165.652 104.906L178.152 106.107L182.933 56.3362L187.714 6.56525L175.214 5.36452L170.433 55.1354ZM182.933 56.3362L178.152 106.107L190.652 107.308L195.433 57.5369L200.214 7.76599L187.714 6.56525L182.933 56.3362ZM195.433 57.5369L190.652 107.308C201.621 108.361 212.612 108.541 223.602 107.843L220.433 57.9438L217.264 8.04433C211.587 8.40487 205.912 8.31332 200.214 7.76599L195.433 57.5369ZM220.433 57.9438L223.602 107.843L236.102 107.049L232.933 57.15L229.764 7.25052L217.264 8.04433L220.433 57.9438ZM232.933 57.15L236.102 107.049L248.602 106.256L245.433 56.3562L242.264 6.45671L229.764 7.25052L232.933 57.15ZM245.433 56.3562L248.602 106.256C256.962 105.725 265.322 105.187 273.682 104.643L270.433 54.7483L267.184 4.85401C258.877 5.39497 250.571 5.92921 242.264 6.45671L245.433 56.3562ZM270.433 54.7483L273.682 104.643L286.182 103.829L282.933 53.9342L279.684 4.03993L267.184 4.85401L270.433 54.7483ZM282.933 53.9342L286.182 103.829L298.682 103.014L295.433 53.1202L292.184 3.22586L279.684 4.03993L282.933 53.9342ZM295.433 53.1202L298.682 103.014C305.978 102.539 313.269 102.293 320.558 102.275L320.433 52.2747L320.307 2.27489C310.93 2.29842 301.555 2.61556 292.184 3.22586L295.433 53.1202ZM320.433 52.2747L320.558 102.275L333.058 102.243L332.933 52.2434L332.807 2.24354L320.307 2.27489L320.433 52.2747ZM332.933 52.2434L333.058 102.243L345.558 102.212L345.433 52.212L345.307 2.21218L332.807 2.24354L332.933 52.2434ZM345.433 52.212L345.558 102.212C350.76 102.199 356.02 102.669 361.376 103.656L370.433 54.4831L379.49 5.31028C368.179 3.22683 356.772 2.18342 345.307 2.21218L345.433 52.212ZM370.433 54.4831L361.376 103.656L373.876 105.958L382.933 56.7855L391.99 7.6127L379.49 5.31028L370.433 54.4831ZM382.933 56.7855L373.876 105.958L386.376 108.261L395.433 59.0879L404.49 9.91513L391.99 7.6127L382.933 56.7855ZM395.433 59.0879L386.376 108.261C396.011 110.035 405.67 111.419 415.351 112.408L420.433 62.6674L425.515 12.9263C418.529 12.2126 411.522 11.2103 404.49 9.91513L395.433 59.0879ZM420.433 62.6674L415.351 112.408L427.851 113.686L432.933 63.9444L438.015 14.2033L425.515 12.9263L420.433 62.6674ZM432.933 63.9444L427.851 113.686L440.351 114.963L445.433 65.2215L450.515 15.4804L438.015 14.2033L432.933 63.9444ZM445.433 65.2215L440.351 114.963C452.066 116.159 463.807 116.159 475.521 114.96L470.433 65.2198L465.345 15.4794C460.393 15.986 455.467 15.9863 450.515 15.4804L445.433 65.2215ZM470.433 65.2198L475.521 114.96L488.021 113.682L482.933 63.9412L477.845 14.2007L465.345 15.4794L470.433 65.2198ZM482.933 63.9412L488.021 113.682L500.521 112.403L495.433 62.6625L490.345 12.9221L477.845 14.2007L482.933 63.9412ZM495.433 62.6625L500.521 112.403C510.29 111.404 520.035 109.98 529.752 108.137L520.433 59.0126L511.114 9.88869C504.164 11.2071 497.242 12.2165 490.345 12.9221L495.433 62.6625ZM520.433 59.0126L529.752 108.137L542.252 105.765L532.933 56.6414L523.614 7.51746L511.114 9.88869L520.433 59.0126ZM532.933 56.6414L542.252 105.765L554.752 103.394L545.433 54.2702L536.114 5.14624L523.614 7.51746L532.933 56.6414ZM545.433 54.2702L554.752 103.394C560.767 102.253 566.713 101.564 572.609 101.307L570.433 51.3545L568.257 1.40184C557.486 1.87102 546.766 3.12566 536.114 5.14624L545.433 54.2702ZM570.433 51.3545L572.609 101.307L585.109 100.763L582.933 50.81L580.757 0.857351L568.257 1.40184L570.433 51.3545ZM582.933 50.81L585.109 100.763L597.609 100.218L595.433 50.2655L593.257 0.312868L580.757 0.857351L582.933 50.81ZM595.433 50.2655L597.609 100.218C604.455 99.9199 611.3 99.9275 618.147 100.241L620.433 50.2932L622.719 0.345449C612.899 -0.104013 603.077 -0.114889 593.257 0.312868L595.433 50.2655ZM620.433 50.2932L618.147 100.241L630.647 100.813L632.933 50.8653L635.219 0.917589L622.719 0.345449L620.433 50.2932ZM632.933 50.8653L630.647 100.813L643.147 101.385L645.433 51.4374L647.719 1.48973L635.219 0.917589L632.933 50.8653ZM645.433 51.4374L643.147 101.385C646.768 101.551 650.666 102.229 654.943 103.623L670.433 56.0825L685.923 8.54254C673.533 4.50546 660.764 2.08681 647.719 1.48973L645.433 51.4374ZM670.433 56.0825L654.943 103.623L667.443 107.695L682.933 60.1555L698.423 12.6155L685.923 8.54254L670.433 56.0825ZM682.933 60.1555L667.443 107.695L679.943 111.768L695.433 64.2285L710.923 16.6885L698.423 12.6155L682.933 60.1555ZM695.433 64.2285L679.943 111.768C695.96 116.987 712.776 118.263 729.627 115.111L720.433 65.9631L711.239 16.8156C711.191 16.8246 711.197 16.8207 711.246 16.8179C711.295 16.815 711.349 16.8154 711.394 16.8185C711.438 16.8216 711.436 16.8247 711.376 16.8128C711.315 16.8006 711.166 16.7676 710.923 16.6885L695.433 64.2285ZM720.433 65.9631L729.627 115.111L742.127 112.772L732.933 63.6247L723.739 14.4773L711.239 16.8156L720.433 65.9631ZM732.933 63.6247L742.127 112.772L754.627 110.434L745.433 61.2863L736.239 12.1389L723.739 14.4773L732.933 63.6247ZM745.433 61.2863L754.627 110.434C759.265 109.566 763.774 109.255 768.227 109.451L770.433 59.5L772.639 9.54866C760.425 9.00931 748.267 9.88879 736.239 12.1389L745.433 61.2863ZM770.433 59.5L768.227 109.451L780.727 110.003L782.933 60.052L785.139 10.1007L772.639 9.54866L770.433 59.5ZM782.933 60.052L780.727 110.003L793.227 110.555L795.433 60.604L797.639 10.6527L785.139 10.1007L782.933 60.052ZM795.433 60.604L793.227 110.555C802.329 110.957 811.433 111.149 820.537 111.13L820.433 61.1299L820.329 11.13C812.766 11.1458 805.203 10.9867 797.639 10.6527L795.433 60.604ZM820.433 61.1299L820.537 111.13L833.037 111.104L832.933 61.1038L832.829 11.1039L820.329 11.13L820.433 61.1299ZM832.933 61.1038L833.037 111.104L845.537 111.078L845.433 61.0777L845.329 11.0778L832.829 11.1039L832.933 61.1038ZM845.433 61.0777L845.537 111.078C855.4 111.057 865.256 110.584 875.099 109.662L870.433 59.8799L865.767 10.0981C858.943 10.7377 852.132 11.0636 845.329 11.0778L845.433 61.0777ZM870.433 59.8799L875.099 109.662L887.599 108.49L882.933 58.7082L878.267 8.92644L865.767 10.0981L870.433 59.8799ZM882.933 58.7082L887.599 108.49L900.099 107.318L895.433 57.5365L890.767 7.75473L878.267 8.92644L882.933 58.7082ZM895.433 57.5365L900.099 107.318C903.941 106.958 907.796 107.106 911.783 107.807L920.433 58.5604L929.083 9.31438C916.403 7.0871 903.591 6.55258 890.767 7.75473L895.433 57.5365ZM920.433 58.5604L911.783 107.807L924.283 110.002L932.933 60.7561L941.583 11.51L929.083 9.31438L920.433 58.5604ZM932.933 60.7561L924.283 110.002L936.783 112.198L945.433 62.9517L954.083 13.7057L941.583 11.51L932.933 60.7561ZM945.433 62.9517L936.783 112.198C949.056 114.354 961.451 115.024 973.88 114.165L970.433 64.2836L966.986 14.4026C962.748 14.6954 958.477 14.4774 954.083 13.7057L945.433 62.9517ZM970.433 64.2836L973.88 114.165L986.38 113.301L982.933 63.4199L979.486 13.5388L966.986 14.4026L970.433 64.2836ZM982.933 63.4199L986.38 113.301L998.88 112.437L995.433 62.5562L991.986 12.6751L979.486 13.5388L982.933 63.4199ZM995.433 62.5562L998.88 112.437C1009.59 111.697 1020.24 110.193 1030.82 107.948L1020.43 59.0382L1010.05 10.1286C1003.96 11.4221 997.941 12.2636 991.986 12.6751L995.433 62.5562ZM1020.43 59.0382L1030.82 107.948L1043.32 105.294L1032.93 56.384L1022.55 7.47443L1010.05 10.1286L1020.43 59.0382ZM1032.93 56.384L1043.32 105.294L1055.82 102.639L1045.43 53.7298L1035.05 4.82023L1022.55 7.47443L1032.93 56.384ZM1045.43 53.7298L1055.82 102.639C1059.03 101.957 1062.02 101.825 1064.98 102.149L1070.43 52.4479L1075.89 2.74654C1062.18 1.24154 1048.5 1.96377 1035.05 4.82023L1045.43 53.7298ZM1070.43 52.4479L1064.98 102.149L1077.48 103.522L1082.93 53.8202L1088.39 4.11885L1075.89 2.74654L1070.43 52.4479ZM1082.93 53.8202L1077.48 103.522L1089.98 104.894L1095.43 55.1925L1100.89 5.49117L1088.39 4.11885L1082.93 53.8202ZM1095.43 55.1925L1089.98 104.894C1100.99 106.103 1112.03 106.418 1123.08 105.832L1120.43 55.902L1117.79 5.97212C1112.17 6.27004 1106.54 6.11199 1100.89 5.49117L1095.43 55.1925ZM1120.43 55.902L1123.08 105.832L1135.58 105.169L1132.93 55.2391L1130.29 5.30923L1117.79 5.97212L1120.43 55.902ZM1132.93 55.2391L1135.58 105.169L1148.08 104.506L1145.43 54.5762L1142.79 4.64634L1130.29 5.30923L1132.93 55.2391ZM1145.43 54.5762L1148.08 104.506C1155.4 104.118 1162.71 103.954 1170.03 104.013L1170.43 54.0145L1170.84 4.01612C1161.48 3.9404 1152.13 4.15058 1142.79 4.64634L1145.43 54.5762ZM1170.43 54.0145L1170.03 104.013L1182.53 104.114L1182.93 54.1157L1183.34 4.11731L1170.84 4.01612L1170.43 54.0145ZM1182.93 54.1157L1182.53 104.114L1195.03 104.215L1195.43 54.2169L1195.84 4.2185L1183.34 4.11731L1182.93 54.1157ZM1195.43 54.2169L1195.03 104.215C1199.34 104.25 1203.79 104.797 1208.45 105.947L1220.43 57.4031L1232.41 8.85966C1220.41 5.89603 1208.19 4.31848 1195.84 4.2185L1195.43 54.2169ZM1220.43 57.4031L1208.45 105.947L1220.95 109.032L1232.93 60.4881L1244.91 11.9447L1232.41 8.85966L1220.43 57.4031ZM1232.93 60.4881L1220.95 109.032L1233.45 112.117L1245.43 63.5732L1257.41 15.0297L1244.91 11.9447L1232.93 60.4881ZM1245.43 63.5732L1233.45 112.117C1247.24 115.52 1261.37 116.569 1275.58 115.099L1270.43 65.3643L1265.28 15.63C1262.83 15.8843 1260.29 15.7392 1257.41 15.0297L1245.43 63.5732ZM1270.43 65.3643L1275.58 115.099L1288.08 113.805L1282.93 64.0705L1277.78 14.3362L1265.28 15.63L1270.43 65.3643ZM1282.93 64.0705L1288.08 113.805L1300.58 112.511L1295.43 62.7766L1290.28 13.0423L1277.78 14.3362L1282.93 64.0705ZM1295.43 62.7766L1300.58 112.511C1302.7 112.291 1298.31 113.242 1291.75 109.636L1315.81 65.8066L1339.87 21.9776C1322.8 12.606 1304.83 11.5368 1290.28 13.0423L1295.43 62.7766ZM1315.81 65.8066L1291.75 109.636L1299.62 113.96L1323.68 70.1305L1347.75 26.3015L1339.87 21.9776L1315.81 65.8066ZM1323.68 70.1305L1299.62 113.96L1307.5 118.283L1331.56 74.4544L1355.62 30.6253L1347.75 26.3015L1323.68 70.1305ZM1331.56 74.4544L1307.5 118.283C1299.69 113.996 1293.51 106.868 1290.36 98.5828C1287.65 91.4552 1288.2 86.2154 1288.3 85.3883L1337.95 91.2783L1387.6 97.1683C1388.69 88.0078 1388.67 75.7974 1383.84 63.0618C1378.56 49.169 1368.68 37.7953 1355.62 30.6253L1331.56 74.4544ZM1337.95 91.2783L1288.3 85.3883L1286.82 97.8883L1336.47 103.778L1386.12 109.668L1387.6 97.1683L1337.95 91.2783ZM1336.47 103.778L1286.82 97.8883L1285.34 110.388L1334.99 116.278L1384.64 122.168L1386.12 109.668L1336.47 103.778ZM1334.99 116.278L1285.34 110.388C1284.11 120.69 1283.51 131.017 1283.53 141.36L1333.53 141.278L1383.52 141.197C1383.51 134.873 1383.88 128.534 1384.64 122.168L1334.99 116.278ZM1333.53 141.278L1283.53 141.36L1283.55 153.86L1333.55 153.778L1383.55 153.697L1383.52 141.197L1333.53 141.278ZM1333.55 153.778L1283.55 153.86L1283.57 166.36L1333.57 166.278L1383.57 166.197L1383.55 153.697L1333.55 153.778ZM1333.57 166.278L1283.57 166.36C1283.58 177.538 1284.55 188.669 1286.45 199.726L1335.73 191.278L1385.01 182.831C1384.05 177.221 1383.57 171.685 1383.57 166.197L1333.57 166.278ZM1335.73 191.278L1286.45 199.726L1288.59 212.226L1337.87 203.778L1387.15 195.331L1385.01 182.831L1335.73 191.278ZM1337.87 203.778L1288.59 212.226L1290.73 224.726L1340.01 216.278L1389.3 207.831L1387.15 195.331L1337.87 203.778ZM1340.01 216.278L1290.73 224.726C1291.13 227.018 1291.11 229.202 1290.64 231.581L1339.69 241.278L1388.74 250.976C1391.56 236.688 1391.76 222.205 1389.3 207.831L1340.01 216.278ZM1339.69 241.278L1290.64 231.581L1288.16 244.081L1337.21 253.778L1386.27 263.476L1388.74 250.976L1339.69 241.278ZM1337.21 253.778L1288.16 244.081L1285.69 256.581L1334.74 266.278L1383.79 275.976L1386.27 263.476L1337.21 253.778ZM1334.74 266.278L1285.69 256.581C1282.42 273.109 1283.35 289.702 1288.13 305.646L1336.02 291.278L1383.91 276.911C1383.84 276.653 1383.8 276.48 1383.78 276.382C1383.77 276.285 1383.76 276.236 1383.76 276.224C1383.76 276.213 1383.76 276.203 1383.76 276.182C1383.76 276.162 1383.77 276.096 1383.79 275.976L1334.74 266.278ZM1336.02 291.278L1288.13 305.646L1291.88 318.146L1339.77 303.778L1387.66 289.411L1383.91 276.911L1336.02 291.278ZM1339.77 303.778L1291.88 318.146L1295.63 330.646L1343.52 316.278L1391.41 301.911L1387.66 289.411L1339.77 303.778ZM1343.52 316.278L1295.63 330.646C1296.14 332.341 1296.15 333.435 1296.01 334.409L1345.54 341.278L1395.06 348.148C1397.24 332.455 1395.9 316.883 1391.41 301.911L1343.52 316.278ZM1345.54 341.278L1296.01 334.409L1294.28 346.909L1343.8 353.778L1393.33 360.648L1395.06 348.148L1345.54 341.278ZM1343.8 353.778L1294.28 346.909L1292.54 359.409L1342.07 366.278L1391.6 373.148L1393.33 360.648L1343.8 353.778ZM1342.07 366.278L1292.54 359.409C1290.83 371.732 1290.62 384.125 1291.92 396.498L1341.65 391.278L1391.38 386.059C1390.92 381.765 1390.99 377.491 1391.6 373.148L1342.07 366.278ZM1341.65 391.278L1291.92 396.498L1293.23 408.998L1342.96 403.778L1392.69 398.559L1391.38 386.059L1341.65 391.278ZM1342.96 403.778L1293.23 408.998L1294.55 421.498L1344.27 416.278L1394 411.059L1392.69 398.559L1342.96 403.778ZM1344.27 416.278L1294.55 421.498C1295.23 428.007 1295.55 434.498 1295.51 440.977L1345.51 441.278L1395.51 441.579C1395.57 431.392 1395.07 421.216 1394 411.059L1344.27 416.278ZM1345.51 441.278L1295.51 440.977L1295.43 453.477L1345.43 453.778L1395.43 454.079L1395.51 441.579L1345.51 441.278ZM1345.43 453.778L1295.43 453.477L1295.36 465.977L1345.36 466.278L1395.36 466.579L1395.43 454.079L1345.43 453.778ZM1345.36 466.278L1295.36 465.977C1295.31 473.424 1295.07 480.872 1294.63 488.323L1344.54 491.278L1394.46 494.233C1395 485.018 1395.3 475.799 1395.36 466.579L1345.36 466.278ZM1344.54 491.278L1294.63 488.323L1293.89 500.823L1343.8 503.778L1393.72 506.733L1394.46 494.233L1344.54 491.278ZM1343.8 503.778L1293.89 500.823L1293.15 513.323L1343.06 516.278L1392.98 519.233L1393.72 506.733L1343.8 503.778ZM1343.06 516.278L1293.15 513.323C1292.51 524.076 1292.66 534.832 1293.59 545.571L1343.4 541.278L1393.22 536.985C1392.71 531.058 1392.63 525.147 1392.98 519.233L1343.06 516.278ZM1343.4 541.278L1293.59 545.571L1294.66 558.071L1344.48 553.778L1394.29 549.485L1393.22 536.985L1343.4 541.278ZM1344.48 553.778L1294.66 558.071L1295.74 570.571L1345.55 566.278L1395.37 561.985L1394.29 549.485L1344.48 553.778ZM1345.55 566.278L1295.74 570.571C1296.21 576.077 1296.22 581.567 1295.75 587.072L1345.58 591.278L1395.4 595.485C1396.34 584.323 1396.33 573.146 1395.37 561.985L1345.55 566.278ZM1345.58 591.278L1295.75 587.072L1294.7 599.572L1344.52 603.778L1394.34 607.985L1395.4 595.485L1345.58 591.278ZM1344.52 603.778L1294.7 599.572L1293.64 612.072L1343.47 616.278L1393.29 620.485L1394.34 607.985L1344.52 603.778ZM1343.47 616.278L1293.64 612.072C1292.75 622.606 1292.56 633.155 1293.08 643.705L1343.02 641.278L1392.96 638.852C1392.66 632.735 1392.77 626.617 1393.29 620.485L1343.47 616.278ZM1343.02 641.278L1293.08 643.705L1293.68 656.205L1343.63 653.778L1393.57 651.352L1392.96 638.852L1343.02 641.278ZM1343.63 653.778L1293.68 656.205L1294.29 668.705L1344.23 666.278L1394.17 663.852L1393.57 651.352L1343.63 653.778ZM1344.23 666.278L1294.29 668.705C1294.59 674.818 1294.48 680.932 1293.96 687.061L1343.78 691.278L1393.6 695.495C1394.5 684.958 1394.69 674.405 1394.17 663.852L1344.23 666.278ZM1343.78 691.278L1293.96 687.061L1292.9 699.561L1342.72 703.778L1392.55 707.995L1393.6 695.495L1343.78 691.278ZM1342.72 703.778L1292.9 699.561L1291.84 712.061L1341.67 716.278L1391.49 720.495L1392.55 707.995L1342.72 703.778ZM1341.67 716.278L1291.84 712.061C1291.11 720.744 1290.47 729.428 1289.92 738.113L1339.82 741.278L1389.72 744.444C1390.22 736.462 1390.81 728.479 1391.49 720.495L1341.67 716.278ZM1339.82 741.278L1289.92 738.113L1289.12 750.613L1339.02 753.778L1388.92 756.944L1389.72 744.444L1339.82 741.278ZM1339.02 753.778L1289.12 750.613L1288.33 763.113L1338.23 766.278L1388.13 769.444L1388.92 756.944L1339.02 753.778ZM1338.23 766.278L1288.33 763.113C1288.57 759.281 1290.19 749.932 1298.51 741.287C1306.87 732.598 1316.25 730.584 1320.28 730.197L1325.06 779.968L1329.84 829.738C1342.12 828.558 1357.83 823.867 1370.58 810.614C1383.28 797.406 1387.36 781.609 1388.13 769.444L1338.23 766.278ZM1325.06 779.968L1320.28 730.197L1307.9 731.387L1312.68 781.157L1317.47 830.928L1329.84 829.738L1325.06 779.968ZM1312.68 781.157L1307.9 731.387L1295.52 732.576L1300.31 782.347L1305.09 832.118L1317.47 830.928L1312.68 781.157ZM1300.31 782.347L1295.52 732.576C1292.94 732.825 1290.17 732.672 1287.01 731.92L1275.43 780.561L1263.85 829.201C1277.36 832.417 1291.18 833.455 1305.09 832.118L1300.31 782.347ZM1275.43 780.561L1287.01 731.92L1274.51 728.944L1262.93 777.585L1251.35 826.226L1263.85 829.201L1275.43 780.561ZM1262.93 777.585L1274.51 728.944L1262.01 725.968L1250.43 774.609L1238.85 823.25L1251.35 826.226L1262.93 777.585ZM1250.43 774.609L1262.01 725.968C1248.62 722.779 1234.93 721.707 1221.16 722.89L1225.43 772.706L1229.71 822.523C1232.6 822.275 1235.58 822.471 1238.85 823.25L1250.43 774.609ZM1225.43 772.706L1221.16 722.89L1208.66 723.963L1212.93 773.78L1217.21 823.596L1229.71 822.523L1225.43 772.706ZM1212.93 773.78L1208.66 723.963L1196.16 725.036L1200.43 774.853L1204.71 824.67L1217.21 823.596L1212.93 773.78ZM1200.43 774.853L1196.16 725.036C1185.51 725.95 1174.93 727.603 1164.43 729.972L1175.43 778.746L1186.44 827.52C1192.6 826.13 1198.69 825.187 1204.71 824.67L1200.43 774.853ZM1175.43 778.746L1164.43 729.972L1151.93 732.793L1162.93 781.567L1173.94 830.341L1186.44 827.52L1175.43 778.746ZM1162.93 781.567L1151.93 732.793L1139.43 735.613L1150.43 784.387L1161.44 833.161L1173.94 830.341L1162.93 781.567ZM1150.43 784.387L1139.43 735.613C1136.67 736.234 1134.2 736.33 1131.74 736.017L1125.43 785.619L1119.13 835.22C1133.34 837.025 1147.53 836.3 1161.44 833.161L1150.43 784.387ZM1125.43 785.619L1131.74 736.017L1119.24 734.429L1112.93 784.03L1106.63 833.632L1119.13 835.22L1125.43 785.619ZM1112.93 784.03L1119.24 734.429L1106.74 732.841L1100.43 782.442L1094.13 832.043L1106.63 833.632L1112.93 784.03ZM1100.43 782.442L1106.74 732.841C1097.97 731.727 1089.2 730.73 1080.43 729.849L1075.43 779.599L1070.44 829.349C1078.33 830.141 1086.23 831.04 1094.13 832.043L1100.43 782.442ZM1075.43 779.599L1080.43 729.849L1067.93 728.594L1062.93 778.344L1057.94 828.094L1070.44 829.349L1075.43 779.599ZM1062.93 778.344L1067.93 728.594L1055.43 727.339L1050.43 777.089L1045.44 826.839L1057.94 828.094L1062.93 778.344ZM1050.43 777.089L1055.43 727.339C1046.07 726.401 1036.71 725.751 1027.34 725.393L1025.43 775.357L1023.52 825.32C1030.82 825.599 1038.13 826.105 1045.44 826.839L1050.43 777.089ZM1025.43 775.357L1027.34 725.393L1014.84 724.915L1012.93 774.879L1011.02 824.842L1023.52 825.32L1025.43 775.357ZM1012.93 774.879L1014.84 724.915L1002.34 724.437L1000.43 774.401L998.523 824.364L1011.02 824.842L1012.93 774.879ZM1000.43 774.401L1002.34 724.437C992.923 724.077 983.502 724.024 974.081 724.279L975.433 774.261L976.785 824.243C984.03 824.047 991.276 824.087 998.523 824.364L1000.43 774.401ZM975.433 774.261L974.081 724.279L961.581 724.617L962.933 774.599L964.285 824.581L976.785 824.243L975.433 774.261ZM962.933 774.599L961.581 724.617L949.081 724.955L950.433 774.937L951.785 824.919L964.285 824.581L962.933 774.599ZM950.433 774.937L949.081 724.955C938.644 725.238 928.235 726.177 917.868 727.764L925.433 777.189L932.998 826.613C939.297 825.649 945.555 825.087 951.785 824.919L950.433 774.937ZM925.433 777.189L917.868 727.764L905.368 729.678L912.933 779.102L920.498 828.526L932.998 826.613L925.433 777.189ZM912.933 779.102L905.368 729.678L892.868 731.591L900.433 781.015L907.998 830.44L920.498 828.526L912.933 779.102ZM900.433 781.015L892.868 731.591C886.016 732.64 879.189 733.37 872.381 733.786L875.433 783.693L878.485 833.6C888.344 832.997 898.183 831.942 907.998 830.44L900.433 781.015ZM875.433 783.693L872.381 733.786L859.881 734.551L862.933 784.457L865.985 834.364L878.485 833.6L875.433 783.693ZM862.933 784.457L859.881 734.551L847.381 735.315L850.433 785.222L853.485 835.129L865.985 834.364L862.933 784.457ZM850.433 785.222L847.381 735.315C839.985 735.767 832.592 736.011 825.201 736.045L825.433 786.044L825.665 836.044C834.941 836.001 844.215 835.696 853.485 835.129L850.433 785.222ZM825.433 786.044L825.201 736.045L812.701 736.103L812.933 786.102L813.165 836.102L825.665 836.044L825.433 786.044ZM812.933 786.102L812.701 736.103L800.201 736.161L800.433 786.161L800.665 836.16L813.165 836.102L812.933 786.102ZM800.433 786.161L800.201 736.161C797.835 736.172 795.102 735.789 791.791 734.642L775.433 781.891L759.075 829.139C772.43 833.763 786.364 836.226 800.665 836.16L800.433 786.161ZM775.433 781.891L791.791 734.642L779.291 730.315L762.933 777.563L746.575 824.812L759.075 829.139L775.433 781.891ZM762.933 777.563L779.291 730.315L766.791 725.987L750.433 773.235L734.075 820.484L746.575 824.812L762.933 777.563ZM750.433 773.235L766.791 725.987C750.071 720.198 732.385 718.939 714.748 722.797L725.433 771.642L736.118 820.487C735.833 820.549 735.334 820.609 734.753 820.572C734.182 820.536 733.923 820.431 734.075 820.484L750.433 773.235ZM725.433 771.642L714.748 722.797L702.248 725.532L712.933 774.377L723.618 823.222L736.118 820.487L725.433 771.642ZM712.933 774.377L702.248 725.532L689.748 728.266L700.433 777.111L711.118 825.956L723.618 823.222L712.933 774.377ZM700.433 777.111L689.748 728.266C685.719 729.147 681.897 729.441 678.163 729.236L675.433 779.162L672.703 829.087C685.635 829.794 698.48 828.72 711.118 825.956L700.433 777.111ZM675.433 779.162L678.163 729.236L665.663 728.553L662.933 778.478L660.203 828.404L672.703 829.087L675.433 779.162ZM662.933 778.478L665.663 728.553L653.163 727.869L650.433 777.795L647.703 827.72L660.203 828.404L662.933 778.478ZM650.433 777.795L653.163 727.869C643.984 727.367 634.802 727.099 625.619 727.065L625.433 777.065L625.247 827.064C632.73 827.092 640.215 827.311 647.703 827.72L650.433 777.795ZM625.433 777.065L625.619 727.065L613.119 727.018L612.933 777.018L612.747 827.018L625.247 827.064L625.433 777.065ZM612.933 777.018L613.119 727.018L600.619 726.972L600.433 776.972L600.247 826.971L612.747 827.018L612.933 777.018ZM600.433 776.972L600.619 726.972C590.091 726.933 579.583 727.585 569.107 728.921L575.433 778.519L581.759 828.118C587.95 827.328 594.108 826.948 600.247 826.971L600.433 776.972ZM575.433 778.519L569.107 728.921L556.607 730.515L562.933 780.114L569.259 829.712L581.759 828.118L575.433 778.519ZM562.933 780.114L556.607 730.515L544.107 732.11L550.433 781.708L556.759 831.306L569.259 829.712L562.933 780.114ZM550.433 781.708L544.107 732.11C536.824 733.039 529.551 733.731 522.286 734.189L525.433 784.09L528.58 833.991C537.982 833.398 547.376 832.503 556.759 831.306L550.433 781.708ZM525.433 784.09L522.286 734.189L509.786 734.978L512.933 784.878L516.08 834.779L528.58 833.991L525.433 784.09ZM512.933 784.878L509.786 734.978L497.286 735.766L500.433 785.667L503.58 835.568L516.08 834.779L512.933 784.878ZM500.433 785.667L497.286 735.766C489.296 736.27 481.307 736.691 473.318 737.029L475.433 786.984L477.547 836.939C486.225 836.572 494.903 836.115 503.58 835.568L500.433 785.667ZM475.433 786.984L473.318 737.029L460.818 737.558L462.933 787.513L465.047 837.468L477.547 836.939L475.433 786.984ZM462.933 787.513L460.818 737.558L448.318 738.087L450.433 788.042L452.547 837.998L465.047 837.468L462.933 787.513ZM450.433 788.042L448.318 738.087C444.249 738.259 440.097 737.925 435.766 737.011L425.433 785.931L415.1 834.852C427.436 837.457 439.95 838.531 452.547 837.998L450.433 788.042ZM425.433 785.931L435.766 737.011L423.266 734.37L412.933 783.291L402.6 832.211L415.1 834.852L425.433 785.931ZM412.933 783.291L423.266 734.37L410.766 731.73L400.433 780.65L390.1 829.571L402.6 832.211L412.933 783.291ZM400.433 780.65L410.766 731.73C398.403 729.118 385.86 728.053 373.234 728.609L375.433 778.56L377.632 828.512C381.673 828.334 385.796 828.662 390.1 829.571L400.433 780.65ZM375.433 778.56L373.234 728.609L360.734 729.159L362.933 779.111L365.132 829.062L377.632 828.512L375.433 778.56ZM362.933 779.111L360.734 729.159L348.234 729.709L350.433 779.661L352.632 829.612L365.132 829.062L362.933 779.111ZM350.433 779.661L348.234 729.709C343.17 729.932 338.079 729.664 332.914 728.882L325.433 778.319L317.952 827.756C329.454 829.497 341.029 830.123 352.632 829.612L350.433 779.661ZM325.433 778.319L332.914 728.882L320.414 726.99L312.933 776.428L305.452 825.865L317.952 827.756L325.433 778.319ZM312.933 776.428L320.414 726.99L307.914 725.099L300.433 774.536L292.952 823.973L305.452 825.865L312.933 776.428ZM300.433 774.536L307.914 725.099C294.806 723.115 281.61 723.042 268.479 724.886L275.433 774.4L282.387 823.914C285.923 823.417 289.393 823.435 292.952 823.973L300.433 774.536ZM275.433 774.4L268.479 724.886L255.979 726.641L262.933 776.156L269.887 825.67L282.387 823.914L275.433 774.4ZM262.933 776.156L255.979 726.641L243.479 728.397L250.433 777.911L257.387 827.425L269.887 825.67L262.933 776.156ZM250.433 777.911L243.479 728.397C240.808 728.772 238.172 728.706 235.328 728.132L225.433 777.143L215.538 826.154C229.361 828.945 243.391 829.391 257.387 827.425L250.433 777.911ZM225.433 777.143L235.328 728.132L222.828 725.608L212.933 774.62L203.038 823.631L215.538 826.154L225.433 777.143ZM212.933 774.62L222.828 725.608L210.328 723.085L200.433 772.096L190.538 821.107L203.038 823.631L212.933 774.62ZM200.433 772.096L210.328 723.085C194.939 719.978 179.373 720.23 164.12 723.773L175.433 772.476L186.746 821.179C188.159 820.851 189.261 820.849 190.538 821.107L200.433 772.096ZM175.433 772.476L164.12 723.773L151.62 726.676L162.933 775.38L174.246 824.083L186.746 821.179L175.433 772.476ZM162.933 775.38L151.62 726.676L139.12 729.58L150.433 778.283L161.746 826.987L174.246 824.083L162.933 775.38ZM150.433 778.283L139.12 729.58C135.852 730.339 132.86 730.522 129.946 730.258L125.433 780.054L120.92 829.85C134.672 831.096 148.347 830.099 161.746 826.987L150.433 778.283ZM125.433 780.054L129.946 730.258L117.446 729.125L112.933 778.921L108.42 828.717L120.92 829.85L125.433 780.054ZM112.933 778.921L117.446 729.125L104.946 727.992L100.433 777.788L95.9197 827.584L108.42 828.717L112.933 778.921ZM100.433 777.788L104.946 727.992C101.296 727.661 100.523 727.041 101.392 727.477L79.0069 772.186L56.6214 816.895C69.3925 823.289 82.9029 826.404 95.9197 827.584L100.433 777.788ZM79.0069 772.186L101.392 727.477L92.4665 723.008L70.0809 767.717L47.6954 812.426L56.6214 816.895L79.0069 772.186ZM70.0809 767.717L92.4665 723.008L83.5405 718.539L61.155 763.247L38.7694 807.956L47.6954 812.426L70.0809 767.717ZM61.155 763.247L83.5405 718.539C91.0622 722.305 99.3955 730.063 103.08 741.832C106.193 751.777 104.201 759.038 103.876 760.164L55.8425 746.278L7.80932 732.393C5.07474 741.852 2.76344 756.108 7.64751 771.709C13.103 789.135 25.297 801.211 38.7694 807.956L61.155 763.247ZM55.8425 746.278L103.876 760.164L107.489 747.664L59.4561 733.778L11.4229 719.893L7.80932 732.393L55.8425 746.278ZM59.4561 733.778L107.489 747.664L111.103 735.164L63.0696 721.278L15.0364 707.393L11.4229 719.893L59.4561 733.778ZM63.0696 721.278L111.103 735.164C115.718 719.2 116.468 702.649 113.09 686.212L64.1141 696.278L15.1378 706.344C15.1669 706.486 15.1759 706.571 15.179 706.608C15.182 706.645 15.182 706.669 15.1811 706.691C15.1805 706.705 15.1749 706.914 15.0364 707.393L63.0696 721.278ZM64.1141 696.278L113.09 686.212L110.521 673.712L61.545 683.778L12.5688 693.844L15.1378 706.344L64.1141 696.278ZM61.545 683.778L110.521 673.712L107.952 661.212L58.976 671.278L9.99968 681.344L12.5688 693.844L61.545 683.778ZM58.976 671.278L107.952 661.212C106.548 654.382 105.479 647.587 104.737 640.824L55.0352 646.278L5.33356 651.732C6.42036 661.636 7.97813 671.508 9.99968 681.344L58.976 671.278ZM55.0352 646.278L104.737 640.824L103.365 628.324L53.6635 633.778L3.96186 639.232L5.33356 651.732L55.0352 646.278ZM53.6635 633.778L103.365 628.324L101.993 615.824L52.2918 621.278L2.59016 626.732L3.96186 639.232L53.6635 633.778ZM52.2918 621.278L101.993 615.824C101.855 614.563 101.915 613.102 102.554 611.032L54.7804 596.278L7.00678 581.524C2.49874 596.122 0.89967 611.327 2.59016 626.732L52.2918 621.278ZM54.7804 596.278L102.554 611.032L106.414 598.532L58.6408 583.778L10.8671 569.024L7.00678 581.524L54.7804 596.278ZM58.6408 583.778L106.414 598.532L110.275 586.032L62.5012 571.278L14.7275 556.524L10.8671 569.024L58.6408 583.778ZM62.5012 571.278L110.275 586.032C115.553 568.941 116.039 551.141 111.5 533.692L63.1102 546.278L14.7203 558.865C14.6713 558.676 14.5829 558.199 14.5984 557.56C14.6056 557.267 14.6333 557.012 14.6666 556.812C14.6996 556.614 14.7307 556.514 14.7275 556.524L62.5012 571.278ZM63.1102 546.278L111.5 533.692L108.249 521.192L59.859 533.778L11.469 546.365L14.7203 558.865L63.1102 546.278ZM59.859 533.778L108.249 521.192L104.998 508.692L56.6077 521.278L8.21777 533.865L11.469 546.365L59.859 533.778ZM56.6077 521.278L104.998 508.692C104.465 506.645 104.416 505.015 104.647 503.414L55.1589 496.278L5.67072 489.142C3.4982 504.209 4.41525 519.245 8.21777 533.865L56.6077 521.278ZM55.1589 496.278L104.647 503.414L106.449 490.914L56.9613 483.778L7.47318 476.642L5.67072 489.142L55.1589 496.278ZM56.9613 483.778L106.449 490.914L108.252 478.414L58.7638 471.278L9.27563 464.142L7.47318 476.642L56.9613 483.778ZM58.7638 471.278L108.252 478.414C110.375 463.691 109.633 448.968 106.172 434.583L57.559 446.278L8.94603 457.974C9.49504 460.256 9.55579 462.199 9.27563 464.142L58.7638 471.278ZM57.559 446.278L106.172 434.583L103.165 422.083L54.5517 433.778L5.93876 445.474L8.94603 457.974L57.559 446.278ZM54.5517 433.778L103.165 422.083L100.157 409.583L51.5444 421.278L2.93148 432.974L5.93876 445.474L54.5517 433.778ZM51.5444 421.278L100.157 409.583C99.9491 408.717 99.9534 408.188 100.136 407.388L51.3857 396.278L2.63547 385.169C-0.980114 401.035 -0.869907 417.173 2.93148 432.974L51.5444 421.278ZM51.3857 396.278L100.136 407.388L102.984 394.888L54.2342 383.778L5.484 372.669L2.63547 385.169L51.3857 396.278ZM54.2342 383.778L102.984 394.888L105.833 382.388L57.0827 371.278L8.33253 360.169L5.484 372.669L54.2342 383.778ZM57.0827 371.278L105.833 382.388C109.235 367.459 109.572 352.235 106.764 337.136L57.6066 346.278L8.44945 355.42C8.74114 356.989 8.72871 358.43 8.33253 360.169L57.0827 371.278ZM57.6066 346.278L106.764 337.136L104.439 324.636L55.2819 333.778L6.12477 342.92L8.44945 355.42L57.6066 346.278ZM55.2819 333.778L104.439 324.636L102.114 312.136L52.9572 321.278L3.80009 330.42L6.12477 342.92L55.2819 333.778ZM52.9572 321.278L102.114 312.136C102.107 312.095 102.112 312.109 102.115 312.164C102.118 312.22 102.117 312.28 102.114 312.331C102.11 312.381 102.106 312.383 102.118 312.326C102.129 312.268 102.162 312.122 102.242 311.88L54.738 296.278L7.23449 280.676C1.97205 296.699 0.660297 313.537 3.80009 330.42L52.9572 321.278ZM54.738 296.278L102.242 311.88L106.347 299.38L58.8434 283.778L11.3399 268.176L7.23449 280.676L54.738 296.278ZM58.8434 283.778L106.347 299.38L110.452 286.88L62.9489 271.278L15.4454 255.676L11.3399 268.176L58.8434 283.778ZM62.9489 271.278L110.452 286.88C115.256 272.256 117.117 256.938 115.573 241.352L65.8167 246.278L16.06 251.205C16.167 252.285 16.1161 253.634 15.4454 255.676L62.9489 271.278ZM65.8167 246.278L115.573 241.352L114.336 228.852L64.5791 233.778L14.8224 238.705L16.06 251.205L65.8167 246.278ZM64.5791 233.778L114.336 228.852L113.098 216.352L63.3416 221.278L13.5848 226.205L14.8224 238.705L64.5791 233.778ZM63.3416 221.278L113.098 216.352C112.339 208.688 111.737 201.027 111.291 193.369L61.3753 196.278L11.4601 199.188C11.9852 208.197 12.6936 217.202 13.5848 226.205L63.3416 221.278ZM61.3753 196.278L111.291 193.369L110.562 180.869L60.6467 183.778L10.7314 186.688L11.4601 199.188L61.3753 196.278ZM60.6467 183.778L110.562 180.869L109.833 168.369L59.918 171.278L10.0028 174.188L10.7314 186.688L60.6467 183.778ZM59.918 171.278L109.833 168.369C109.506 162.75 109.635 157.129 110.226 151.48L60.4968 146.278L10.7681 141.077C9.61573 152.094 9.35876 163.14 10.0028 174.188L59.918 171.278ZM60.4968 146.278L110.226 151.48L111.533 138.98L61.8042 133.778L12.0755 128.577L10.7681 141.077L60.4968 146.278ZM61.8042 133.778L111.533 138.98L112.84 126.48L63.1117 121.278L13.3829 116.077L12.0755 128.577L61.8042 133.778ZM63.1117 121.278L112.84 126.48C113.836 116.964 114.489 107.439 114.8 97.9064L64.8263 96.2783L14.8529 94.6501C14.6204 101.784 14.1309 108.926 13.3829 116.077L63.1117 121.278ZM64.8263 96.2783L114.8 97.9064L115.207 85.4064L65.2336 83.7783L15.2601 82.1501L14.8529 94.6501L64.8263 96.2783ZM65.2336 83.7783L115.207 85.4064L115.614 72.9064L65.6409 71.2783L15.6674 69.6501L15.2601 82.1501L65.2336 83.7783ZM65.6409 71.2783L115.614 72.9064C115.77 68.1258 115.832 61.705 115.024 55.471C114.689 52.8887 113.744 46.2294 110.403 38.8775C108.095 33.7972 95.2645 8.77828 64.0193 8.77828V58.7783V108.778C49.9566 108.778 38.5219 102.918 30.9141 96.0244C24.1894 89.9307 20.8397 83.4996 19.3595 80.2416C16.4925 73.9313 15.9193 68.8345 15.8546 68.3355C15.5864 66.2682 15.7831 66.0974 15.6674 69.6501L65.6409 71.2783ZM64.0193 58.7783V8.77828H61.9905V58.7783V108.778H64.0193V58.7783ZM61.9905 58.7783V8.77828H59.9617V58.7783V108.778H61.9905V58.7783ZM59.9617 58.7783V8.77828C60.2078 8.77828 61.2699 8.77735 62.6643 8.85835C63.2769 8.89393 64.8959 8.99537 66.9549 9.29694C67.9675 9.44525 69.8782 9.7541 72.2323 10.364C73.7699 10.7624 79.4476 12.2374 85.7861 16.1175C90.0593 18.7333 112.367 33.6861 109.441 63.621C107.075 87.8329 89.1402 99.1944 87.639 100.207C83.0176 103.323 78.9401 104.919 77.5465 105.452C75.6621 106.172 74.1124 106.632 73.2319 106.879C70.3232 107.696 67.9549 108.053 67.8707 108.067C66.3287 108.317 65.297 108.393 66.5144 108.272C67.8213 108.142 70.4222 107.911 74.585 107.564L70.4329 57.7367L66.2809 7.90936C62.1103 8.25689 58.7994 8.54622 56.6159 8.76343C56.0881 8.81593 53.9165 9.02258 51.8401 9.35981C51.6222 9.39519 49.1581 9.77109 46.1915 10.6043C45.2965 10.8557 43.7347 11.3194 41.8405 12.0434C40.4372 12.5799 36.3523 14.1788 31.7258 17.2989C30.2196 18.3147 12.282 29.6794 9.91551 53.8944C6.9897 83.8323 29.2994 98.788 33.577 101.406C39.9199 105.289 45.6044 106.767 47.1511 107.168C49.5144 107.78 51.4366 108.091 52.4631 108.241C54.5499 108.547 56.2062 108.652 56.8654 108.69C58.3533 108.776 59.5466 108.778 59.9617 108.778V58.7783ZM70.4329 57.7367L74.585 107.564L87.085 106.522L82.9329 56.6951L78.7809 6.86775L66.2809 7.90936L70.4329 57.7367Z" fill="#FDFFFE" mask="url(#path-1-outside-1_54_40)"/>
</svg>
